<svg width="499" height="696" viewBox="0 0 499 696" fill="none" xmlns="http://www.w3.org/2000/svg">
<path fill-rule="evenodd" clip-rule="evenodd" d="M271.909 27.6032C243.927 80.3146 236.241 241.608 274.64 323.367C275.294 325.323 275.633 326.122 276.109 327.932C285.382 366.876 279.651 568.817 274.983 632.794C273.822 649.495 280.791 672.891 303.11 687.359C303.183 687.357 303.181 687.278 303.254 687.242C304.657 688.349 306.128 689.417 307.605 690.407C329.549 675.129 335.466 651.473 333.647 634.89C329.911 600.621 319.656 460.583 315.535 329.821C322.952 196.754 311.684 50.8653 312.759 27.3209C314.224 -2.18858 287.968 -2.47678 271.909 27.6032Z" fill="white"/>
</svg>
