<svg width="501" height="717" viewBox="0 0 501 717" fill="none" xmlns="http://www.w3.org/2000/svg">
<path fill-rule="evenodd" clip-rule="evenodd" d="M231.769 656.967C225.986 588.275 205.124 271.163 216.803 244.46C227.47 218.501 241.11 210.897 248.246 208.566C250.352 207.919 255.151 204.921 254.56 200.118C253.524 180.631 246.781 72.4712 244.177 30.7166L237.333 30.8716L229.691 161.956C229.691 161.956 229.601 163.896 227.942 164.307L221.313 31.2336L214.364 31.3915L206.422 161.813C206.422 161.813 206.345 163.494 204.986 164.066L198.693 31.748L191.668 31.9044L183.425 161.729C183.425 161.729 183.341 163.589 181.677 163.966L175.893 32.2637L168.66 32.4261C165.17 78.297 157.514 179.237 156.26 197.682C155.992 202.279 160.849 206.135 162.57 206.69C167.591 208.412 177.428 213.463 186.401 225.422C189.025 229.465 191.495 234.175 193.631 239.696C204.942 266.637 179.755 583.38 173.059 651.936C171.839 664.396 174.978 680.617 185.478 694.469C189.754 701.318 195.738 707.798 203.654 713.174C226.368 698.159 233.184 674.027 231.769 656.967Z" fill="white"/>
</svg>
