<svg width="365" height="287" viewBox="0 0 365 287" fill="none" xmlns="http://www.w3.org/2000/svg">
<path fill-rule="evenodd" clip-rule="evenodd" d="M255.38 128.265C255.38 86.2199 221.296 52.1346 179.249 52.1346C137.204 52.1346 103.12 86.2199 103.12 128.265C103.12 170.311 137.204 204.396 179.249 204.396C221.296 204.396 255.38 170.311 255.38 128.265ZM179.249 196.741C141.432 196.741 110.774 166.083 110.774 128.265C110.774 90.4465 141.432 59.7892 179.249 59.7892C217.068 59.7892 247.725 90.4465 247.725 128.265C247.725 166.083 217.068 196.741 179.249 196.741Z" fill="white"/>
<path fill-rule="evenodd" clip-rule="evenodd" d="M284.346 190.159C271.365 212.149 251.678 229.709 228.1 240.031C230.548 241.22 232.998 242.407 235.45 243.588C258.046 232.556 276.92 215.079 289.676 193.551C289.504 193.409 289.338 193.261 289.18 193.105C287.846 191.8 286.182 190.844 284.346 190.159ZM58.9557 148.376C57.8704 141.833 57.297 135.116 57.297 128.265C57.297 60.912 111.897 6.312 179.249 6.312C246.602 6.312 301.202 60.912 301.202 128.265C301.202 130.631 301.134 132.98 301.002 135.312L307.441 132.539C307.488 131.12 307.514 129.696 307.514 128.265C307.514 57.4267 250.088 0 179.249 0C108.412 0 50.985 57.4267 50.985 128.265C50.985 133.832 51.3397 139.316 52.029 144.696L53.373 145.407C55.2357 146.393 57.0957 147.383 58.9557 148.376ZM125.616 237.816C109.318 229.82 95.065 218.295 83.8543 204.236C79.9197 202.631 76.065 200.916 72.345 199.151C83.9197 216.571 99.637 231 118.093 241.032L123.95 238.529L125.616 237.816ZM179.249 250.217C173.162 250.217 167.181 249.771 161.334 248.909C158.598 250.559 155.864 252.211 153.132 253.867C161.565 255.611 170.3 256.531 179.249 256.531C185.404 256.531 191.454 256.087 197.377 255.248C194.416 253.448 191.45 251.656 188.48 249.872C185.433 250.1 182.354 250.217 179.249 250.217Z" fill="white"/>
<path fill-rule="evenodd" clip-rule="evenodd" d="M127.578 118.177C130.672 130.256 138.581 161.892 138.581 161.892L177.316 161.645L216.052 161.892C216.052 161.892 223.96 130.256 227.054 118.177C227.122 118.18 227.192 118.183 227.261 118.183C230.228 118.183 232.633 115.777 232.633 112.809C232.633 109.843 230.228 107.437 227.261 107.437C224.293 107.437 221.888 109.843 221.888 112.809C221.888 114.327 222.517 115.696 223.528 116.673C219.713 123.093 212.853 134.371 209.153 138.811C195.577 155.101 184.278 122.052 178.901 104.788C181.094 104.112 182.689 102.069 182.689 99.6532C182.689 96.6866 180.284 94.2813 177.316 94.2813C174.349 94.2813 171.944 96.6866 171.944 99.6532C171.944 102.069 173.538 104.112 175.732 104.788C170.354 122.052 159.056 155.101 145.48 138.811C141.78 134.371 134.92 123.093 131.105 116.673C132.116 115.696 132.744 114.327 132.744 112.809C132.744 109.843 130.338 107.437 127.372 107.437C124.405 107.437 122 109.843 122 112.809C122 115.777 124.405 118.183 127.372 118.183C127.441 118.183 127.51 118.18 127.578 118.177Z" fill="white"/>
<path fill-rule="evenodd" clip-rule="evenodd" d="M101.092 281.939C128.454 264.493 256.049 186.391 269.734 185.413C282.888 184.177 289.042 188.197 291.576 190.661C292.306 191.397 294.606 192.741 296.478 191.444C304.373 186.747 347.974 160.263 364.806 150.039L363.244 147.22L306.94 172.727C306.94 172.727 306.112 173.113 305.577 172.512L359.586 140.623L358 137.761L301.906 162.997C301.906 162.997 301.189 163.333 300.653 162.892L354.421 131.308L352.818 128.415L296.908 153.395C296.908 153.395 296.114 153.767 295.593 153.156L349.216 121.919L347.565 118.94C327.684 127.525 283.94 146.428 275.978 149.943C274.004 150.837 273.46 153.705 273.605 154.544C273.986 157.013 274.034 162.219 271.014 168.576C269.904 170.555 268.481 172.615 266.648 174.713C257.896 185.324 120.376 244.155 90.3383 256.369C84.8783 258.588 78.805 263.447 75.3303 270.855C73.4117 274.136 72.0209 278.048 71.5129 282.524C82.7423 288.704 94.2916 286.263 101.092 281.939Z" fill="white"/>
<path fill-rule="evenodd" clip-rule="evenodd" d="M3.837 144.233C18.4277 167.469 80.9424 207.512 122.328 210.955C123.257 211.143 123.653 211.191 124.484 211.416C142.129 216.649 221.29 265.232 245.716 281.76C252.105 286.052 263.026 288.639 273.909 283.061C273.925 283.032 273.893 283.015 273.896 282.977C274.658 282.672 275.421 282.331 276.154 281.969C275.097 269.721 267.026 261.94 260.001 258.863C245.488 252.495 187.33 224.475 134.276 196.137C82.9477 162.673 22.2263 133.716 13.0903 127.889C1.66632 120.54 -4.46833 130.937 3.837 144.233Z" fill="white"/>
<path fill-rule="evenodd" clip-rule="evenodd" d="M79.069 115.067L82.7462 122.52L90.9716 123.715L85.0196 129.516L86.4249 137.708L79.069 133.84L71.7116 137.708L73.1169 129.516L67.1649 123.715L75.3902 122.52L79.069 115.067Z" fill="white"/>
<path fill-rule="evenodd" clip-rule="evenodd" d="M276.402 111.067L280.08 118.52L288.305 119.715L282.353 125.516L283.758 133.708L276.402 129.84L269.045 133.708L270.45 125.516L264.498 119.715L272.724 118.52L276.402 111.067Z" fill="white"/>
</svg>
